<?xml version="1.0" encoding="utf-8"?>
<!-- Generator: Adobe Adobe Illustrator 24.2.0, SVG Export Plug-In . SVG Version: 6.00 Build 0)  -->
<svg version="1.1" id="Layer_1" xmlns="http://www.w3.org/2000/svg" xmlns:xlink="http://www.w3.org/1999/xlink" x="0px" y="0px"
	 width="1728px" height="1296px" viewBox="0 0 1728 1296" style="enable-background:new 0 0 1728 1296;" xml:space="preserve">
<style type="text/css">
	.st0{fill:#C2D8B8;stroke:#C2D8B8;stroke-miterlimit:10;}
	.st1{fill:none;stroke:#85997C;strokeWidth:9;stroke-linecap:round;stroke-linejoin:round;stroke-miterlimit:10;}
</style>
<path class="st0" d="M299.6,505.12c46.27-45.9,106.13-80.71,171.07-86.24c115.83-9.87,219.12,71.65,333.56,92.09
	c121.95,21.78,245.31-27.56,353.14-88.54c36.54-20.66,77.36-43.63,118.04-33.28c36.67,9.32,61.3,43.14,79.82,76.14
	c31.99,57.02,55.4,118.84,69.22,182.74c10.51,48.61,14.67,102.49-10.76,145.23c-31.09,52.24-86.39,74.85-131.93,115.12
	c-171.11,151.3-492.81,147.37-740.55,171.55c-74.84,7.31-155.19,6.02-218.69-34.27c-55.92-35.48-91.05-97.23-107.97-161.26
	S253.33,551.01,299.6,505.12z"/>
<path class="st1" d="M739.47,335.23C647.75,353.4,595.67,443.47,541.7,512.61c-53.97,69.14-118.35,143.23-210.96,157.31
	c-47.71,7.25-101.73-1.66-140.66,24.2c-35,23.24-44.28,66.18-48.54,105.12c-4.25,38.87-5.48,80.52,16.51,114.2
	c33.41,51.17,108.13,66.17,174.09,65.37s133.96-12.06,196.61,6.54c88.38,26.23,144.93,105.44,229.18,141
	c94.87,40.05,207.25,18.15,305.46-14.73c110.12-36.87,215.96-87.42,302.38-159.03s152.6-165.53,174.04-269.44
	c3.22-15.6,5.37-32.02-0.23-47.07c-10.92-29.35-48.43-44.48-82.84-44.98c-34.41-0.5-67.69,9.95-101.57,15.39
	c-92.91,14.92-192.76-10.07-263.76-66c-38.56-30.38-68.23-68.6-100.07-104.74c-31.84-36.14-67.29-71.3-112.96-92.25
	S788.71,311.75,739.47,335.23z"/>
</svg>
