<?xml version="1.0" encoding="utf-8"?>
<!-- Generator: Adobe Adobe Illustrator 24.2.0, SVG Export Plug-In . SVG Version: 6.00 Build 0)  -->
<svg version="1.1" id="Layer_1" xmlns="http://www.w3.org/2000/svg" xmlns:xlink="http://www.w3.org/1999/xlink" x="0px" y="0px"
	 width="2070px" height="1250px" viewBox="0 0 2070 1250" style="enable-background:new 0 0 2070 1250;" xml:space="preserve">
<style type="text/css">
	.st0{fill:#C2D8B8;stroke:#C2D8B8;stroke-miterlimit:10;}
	.st1{display:none;fill:none;stroke:#85997C;stroke-width:9;stroke-linecap:round;stroke-linejoin:round;stroke-miterlimit:10;}
</style>
<path class="st0" d="M149.43,212.66c78.44-82.34,179.89-144.79,289.97-154.72c196.34-17.71,371.42,128.53,565.4,165.2
	c206.71,39.07,415.81-49.44,598.58-158.84c61.93-37.07,131.13-78.26,200.09-59.71c62.16,16.73,103.91,77.38,135.29,136.58
	c54.22,102.29,93.91,213.19,117.32,327.83c17.82,87.21,57.04,233.86,13.92,310.53c-52.7,93.72-148.59,154.27-225.79,226.52
	c-290.04,271.43-865.32,194.38-1285.26,237.76c-126.86,13.11-263.06,10.8-370.68-61.48C93.48,1118.68,33.94,1007.91,5.26,893.04
	S70.99,295,149.43,212.66z"/>
<path class="st1" d="M638.03,253.88c-91.72,18.17-143.81,108.23-197.77,177.37S321.91,574.48,229.3,588.56
	c-47.71,7.25-101.73-1.66-140.66,24.2c-35,23.24-44.28,66.18-48.54,105.12c-4.25,38.87-5.48,80.52,16.51,114.2
	c33.41,51.17,108.13,66.17,174.09,65.37s133.96-12.06,196.61,6.54c88.38,26.23,144.93,105.44,229.18,141
	c94.87,40.05,207.25,18.15,305.46-14.73c110.12-36.87,215.96-87.42,302.38-159.03s152.6-165.53,174.04-269.44
	c3.22-15.6,5.37-32.02-0.23-47.07c-10.92-29.35-48.43-44.48-82.84-44.98s-67.69,9.95-101.57,15.39
	c-92.91,14.92-192.76-10.07-263.76-66c-38.56-30.38-68.23-68.6-100.07-104.74c-31.84-36.14-67.29-71.3-112.96-92.25
	S687.27,230.39,638.03,253.88z"/>
</svg>
