<?xml version="1.0" encoding="utf-8"?>
<!-- Generator: Adobe Adobe Illustrator 24.2.0, SVG Export Plug-In . SVG Version: 6.00 Build 0)  -->
<svg version="1.1" id="Layer_4" xmlns="http://www.w3.org/2000/svg" xmlns:xlink="http://www.w3.org/1999/xlink" x="0px" y="0px"
	 width="1728px" height="1296px" viewBox="0 0 1728 1296" style="enable-background:new 0 0 1728 1296;" xml:space="preserve">
<style type="text/css">
	.st0{fill:none;stroke:#000000;stroke-width:81;stroke-linecap:round;stroke-miterlimit:10;}
	.st1{fill:none;stroke:#000000;stroke-width:51;stroke-linecap:round;stroke-miterlimit:10;}
	.st2{fill:#EB6382;}
</style>
<g>
	<path class="st0" d="M315.69,579.44c76.33,157.29,170.08,364.14,41.82,519.46c-13.8,17.22-33.64,34.26-55.27,29.86
		c-18.85-3.84-30.64-22.49-37.94-40.29c-74.52-194.3,90.13-371.43,230.12-487.66"/>
	<path class="st0" d="M499.14,567.84c-2.53,36.1,7.29,102.35,45.99,115.87c46.3,5.47,72.4-83.23,77.59-119.26"/>
	<path class="st0" d="M621.7,590.07c11.6,80.93,78.09,156.27,147.7,74.32c92.88-96.89,156.45-245.1,98.63-375.04
		c-8.9-19.87-25.98-41.23-47.43-37.55c-24.93,5-31.86,33.82-33.48,55.9c-9.73,84.77-30.44,474.62,121.96,414.96
		c71.79-39.07,107.43-128.22,107.53-207.14"/>
	<path class="st0" d="M1010.54,507.15c-50.54,193.42,241.59,206.53,268.71-7.05c10.85-52.58-29.51-83.39-72.7-47.06
		c-47.73,40.18-51.14,119.97-12.05,168.59c56.74,75.06,211.63,70.26,238.87-29"/>
	<path class="st1" d="M324.27,433.06c0.52-30.26,45.53-30.26,46.05,0C369.8,463.33,324.78,463.32,324.27,433.06z"/>
	<g>
		<path class="st2" d="M1030.95,295.26c0.44-0.19,0.88-0.37,1.32-0.56C1031.83,294.89,1031.39,295.08,1030.95,295.26z"/>
		<path class="st2" d="M1065.61,309.58c-15.13-30.32-44.83-15.24-55.55,9.88c0.05-0.12,0.1-0.24,0.16-0.36
			c-2.22,4.46-3.23,7.45-4.23,12.64c-7.28-8.56-14.05-18.48-24.24-23.77c0.36,0.25,0.8,0.64,1.11,0.86
			c-33.32-15.41-40.5,43.88-26.24,62.92c14.34,18.69,33.35,33.14,50.82,48.71c5.61,3.89,8.25,12.1,15.96,11.94
			c8.97,0.42,19.94-28.8,23.09-35.58C1062.97,369.67,1079.18,342.98,1065.61,309.58z M996.9,396.82c-0.46-0.38-0.92-0.76-1.38-1.15
			c0.51,0.19,1.02,0.38,1.52,0.57C996.99,396.43,996.94,396.62,996.9,396.82z"/>
	</g>
</g>
</svg>
