<?xml version="1.0" encoding="UTF-8"?>
<svg id="Layer_4" data-name="Layer 4" xmlns="http://www.w3.org/2000/svg" viewBox="0 0 1268.638 959.079">
  <path d="m1228.138,381.7468c-27.24,99.26-182.13,104.06-238.87,29-39.09-48.62-35.6799-128.41,12.05-168.59,43.1899-36.33,83.5499-5.52,72.7,47.06-26.9079,211.9097-314.6972,200.6612-269.8331,11.5546.4237-1.786,2.7552-2.2542,3.8328-.7683l2.7917,3.8494c.3694.5094.5689,1.1221.5657,1.7513-.3886,78.68-36.0301,167.2624-107.527,206.1729-152.4,59.66-131.69-330.19-121.96-414.96,1.62-22.08,8.55-50.9,33.48-55.9,21.45-3.68,38.53,17.68,47.43,37.55,57.82,129.94-5.75,278.15-98.63,375.04-69.61,81.95-136.1,6.61-147.7-74.32l.4332-10.8802c.051-1.2801-1.7982-1.5219-2.0698-.2698-8.8745,40.91-34.0157,109.6242-74.9334,104.7901-35.3517-12.3503-46.6046-68.7009-46.3586-105.8765.0044-.6605-.9573-.7316-1.0509-.0778l-3.3005,23.0542C149.198,506.1568-15.452,683.2868,59.068,877.5868c7.3,17.8,19.09,36.4501,37.94,40.29,21.63,4.4,41.47-12.64,55.27-29.86,128.26-155.32,34.51-362.17-41.82-519.46" fill="none" stroke="#000" stroke-linecap="round" stroke-miterlimit="10" stroke-width="81"/>
</svg>