<?xml version="1.0" encoding="utf-8"?>
<!-- Generator: Adobe Illustrator 27.5.0, SVG Export Plug-In . SVG Version: 6.00 Build 0)  -->
<svg version="1.1" id="Layer_4" xmlns="http://www.w3.org/2000/svg" xmlns:xlink="http://www.w3.org/1999/xlink" x="0px" y="0px"
	 viewBox="0 0 1728 1296" style="enable-background:new 0 0 1728 1296;" xml:space="preserve">
<style type="text/css">
	.st0{fill:none;stroke:#000000;stroke-width:81;stroke-linecap:round;stroke-miterlimit:10;}
	.st1{fill:none;stroke:#000000;stroke-width:51;stroke-linecap:round;stroke-miterlimit:10;}
	.st2{fill:#EB6382;}
</style>
<g>
	<path class="st0" d="M1433.4,592.6c-27.2,99.3-182.1,104.1-238.9,29c-39.1-48.6-35.7-128.4,12.1-168.6
		c43.2-36.3,83.5-5.5,72.7,47.1c-26.9,211.9-314.7,200.7-269.8,11.6c0.4-1.8,2.8-2.3,3.8-0.8l2.8,3.8c0.4,0.5,0.6,1.1,0.6,1.8
		c-0.4,78.7-36,167.3-107.5,206.2c-152.4,59.7-131.7-330.2-122-415c1.6-22.1,8.5-50.9,33.5-55.9c21.5-3.7,38.5,17.7,47.4,37.6
		c57.8,129.9-5.8,278.1-98.6,375c-69.6,82-136.1,6.6-147.7-74.3l0.4-10.9c0.1-1.3-1.8-1.5-2.1-0.3c-8.9,40.9-34,109.6-74.9,104.8
		c-35.4-12.4-46.6-68.7-46.4-105.9c0-0.7-1-0.7-1.1-0.1l-3.3,23.1c-140,116.2-304.6,293.4-230.1,487.7c7.3,17.8,19.1,36.5,37.9,40.3
		c21.6,4.4,41.5-12.6,55.3-29.9c128.3-155.3,34.5-362.2-41.8-519.5"/>
	<path class="st1" d="M324.3,433.1c0.5-30.3,45.5-30.3,46,0C369.8,463.3,324.8,463.3,324.3,433.1z"/>
	<g>
		<path class="st2" d="M1030.9,295.3c0.4-0.2,0.9-0.4,1.3-0.6C1031.8,294.9,1031.4,295.1,1030.9,295.3z"/>
		<path class="st2" d="M1065.6,309.6c-15.1-30.3-44.8-15.2-55.5,9.9c0-0.1,0.1-0.2,0.2-0.4c-2.2,4.5-3.2,7.5-4.2,12.6
			c-7.3-8.6-14-18.5-24.2-23.8c0.4,0.2,0.8,0.6,1.1,0.9c-33.3-15.4-40.5,43.9-26.2,62.9c14.3,18.7,33.3,33.1,50.8,48.7
			c5.6,3.9,8.2,12.1,16,11.9c9,0.4,19.9-28.8,23.1-35.6C1063,369.7,1079.2,343,1065.6,309.6z M996.9,396.8c-0.5-0.4-0.9-0.8-1.4-1.1
			c0.5,0.2,1,0.4,1.5,0.6C997,396.4,996.9,396.6,996.9,396.8z"/>
	</g>
</g>
</svg>
