<?xml version="1.0" encoding="UTF-8"?>
<svg id="Layer_1" data-name="Layer 1" xmlns="http://www.w3.org/2000/svg" viewBox="0 0 638.0117 592.9951">
  <g id="Mouth_3" data-name="Mouth 3">
    <ellipse cx="302.5649" cy="389.6491" rx="10.67" ry="10.5" fill="#ad4450"/>
  </g>
  <g id="Mouth_2" data-name="Mouth 2">
    <path d="m325.8749,371.5491c-4.53,8.48-13.94,14.11-23.56,14.11-9.61-.01-19.02-5.65-23.3-12.5-.83,8.61,3.5,17.52,10.79,22.18s17.2,4.84,24.66.47,12.15-13.12,11.41-24.26Z" fill="#ad4450" stroke="#ad4450" stroke-linecap="round" stroke-linejoin="round" stroke-width="4"/>
  </g>
  <g id="Mouth">
    <path d="m278.7749,371.5191c4.52,8.48,13.93,14.13,23.54,14.13,9.61.01,19.02-5.63,23.56-14.11" fill="none" stroke="#ad4450" stroke-linecap="round" stroke-linejoin="round" stroke-width="4"/>
  </g>
  <g id="Eyes_closed" data-name="Eyes closed">
    <path d="m243.8749,297.3991c-4.53-8.77-12.63-15.86-22.23-18.16s-20.52.65-26.92,8.16c-1.8,2.11-3.48,4.7-6.19,5.33-3.16.74-6.16-1.54-8.61-3.68,1.04,5.52,2.08,11.04,3.12,16.56-3.87-1.03-7.75-2.07-11.62-3.1,4.63,5.98,8.66,12.43,12.33,19.39,2.83-6.16,4.58-12.76,7.38-18.93,2.8-6.17,6.92-12.09,12.97-15.13,6.93-3.48,15.41-2.61,22.52.49s13.14,8.17,19.07,13.18c-.13-2.06-1.05-4.07-1.82-4.11Z" stroke="#000" stroke-miterlimit="10"/>
    <path d="m358.5549,297.3991c4.53-8.77,12.63-15.86,22.23-18.16,9.6-2.3,20.52.65,26.92,8.16,1.8,2.11,3.48,4.7,6.19,5.33,3.16.74,6.16-1.54,8.61-3.68-1.04,5.52-2.08,11.04-3.12,16.56,3.87-1.03,7.75-2.07,11.62-3.1-4.63,5.98-8.66,12.43-12.33,19.39-2.83-6.16-4.58-12.76-7.38-18.93-2.8-6.17-6.92-12.09-12.97-15.13-6.93-3.48-15.41-2.61-22.52.49s-13.14,8.17-19.07,13.18c.12-2.06,1.05-4.07,1.82-4.11Z" stroke="#000" stroke-miterlimit="10"/>
  </g>
</svg>